<?xml version="1.0" encoding="UTF-8"?>
<svg width="25px" height="10px" viewBox="0 0 25 10" version="1.1" xmlns="http://www.w3.org/2000/svg" xmlns:xlink="http://www.w3.org/1999/xlink">
    <!-- Generator: Sketch 51.3 (57544) - http://www.bohemiancoding.com/sketch -->
    <title>[icon] domains</title>
    <desc>Created with Sketch.</desc>
    <defs></defs>
    <g id="Page-1" stroke="none" stroke-width="1" fill="none" fill-rule="evenodd">
        <g id="APP-overview" transform="translate(-53.000000, -314.000000)" fill="#000000" fill-rule="nonzero">
            <g id="[sidebar]-menu" transform="translate(15.000000, 159.000000)">
                <g id="[icon]-domains" transform="translate(38.000000, 155.000000)">
                    <path d="M8.59375,9.54861111 L4.77430556,9.54861111 C2.14175347,9.54861111 0,7.40685764 0,4.77430556 C0,2.14175347 2.14175347,0 4.77430556,0 L10.5034722,0 C13.1360243,0 15.2777778,2.14175347 15.2777778,4.77430556 C15.2777778,5.30138889 14.85,5.72916667 14.3229167,5.72916667 C13.7958333,5.72916667 13.3680556,5.30138889 13.3680556,4.77430556 C13.3680556,3.19496528 12.0828125,1.90972222 10.5034722,1.90972222 L4.77430556,1.90972222 C3.19496528,1.90972222 1.90972222,3.19496528 1.90972222,4.77430556 C1.90972222,6.35364583 3.19496528,7.63888889 4.77430556,7.63888889 L8.59375,7.63888889 C9.12083333,7.63888889 9.54861111,8.06666667 9.54861111,8.59375 C9.54861111,9.12083333 9.12083333,9.54861111 8.59375,9.54861111 Z" id="Shape"></path>
                    <path d="M20.2256944,9.54861111 L14.4965278,9.54861111 C11.8639757,9.54861111 9.72222222,7.40685764 9.72222222,4.77430556 C9.72222222,4.24722222 10.15,3.81944444 10.6770833,3.81944444 C11.2041667,3.81944444 11.6319444,4.24722222 11.6319444,4.77430556 C11.6319444,6.35364583 12.9171875,7.63888889 14.4965278,7.63888889 L20.2256944,7.63888889 C21.8050347,7.63888889 23.0902778,6.35364583 23.0902778,4.77430556 C23.0902778,3.19496528 21.8050347,1.90972222 20.2256944,1.90972222 L16.40625,1.90972222 C15.8791667,1.90972222 15.4513889,1.48194444 15.4513889,0.954861111 C15.4513889,0.427777778 15.8791667,0 16.40625,0 L20.2256944,0 C22.8582465,0 25,2.14175347 25,4.77430556 C25,7.40685764 22.8582465,9.54861111 20.2256944,9.54861111 Z" id="Shape"></path>
                </g>
            </g>
        </g>
    </g>
</svg>