<?xml version="1.0" encoding="UTF-8"?>
<svg width="24px" height="25px" viewBox="0 0 24 25" version="1.1" xmlns="http://www.w3.org/2000/svg" xmlns:xlink="http://www.w3.org/1999/xlink">
    <!-- Generator: Sketch 51.3 (57544) - http://www.bohemiancoding.com/sketch -->
    <title>[icon] environment</title>
    <desc>Created with Sketch.</desc>
    <defs></defs>
    <g id="Page-1" stroke="none" stroke-width="1" fill="none" fill-rule="evenodd">
        <g id="APP-overview" transform="translate(-54.000000, -371.000000)" fill="#000000" fill-rule="nonzero">
            <g id="[sidebar]-menu" transform="translate(15.000000, 159.000000)">
                <path d="M62.1428571,232.610099 L50.8782857,232.610099 C50.4951429,231.135527 49.1645714,230.03867 47.5714286,230.03867 C45.9782857,230.03867 44.648,231.135527 44.2645714,232.610099 L39.8571429,232.610099 C39.3834286,232.610099 39,232.993813 39,233.467242 C39,233.94067 39.3834286,234.324384 39.8571429,234.324384 L44.2645714,234.324384 C44.6477143,235.798956 45.9782857,236.895813 47.5714286,236.895813 C49.1645714,236.895813 50.4948571,235.798956 50.8782857,234.324384 L62.1428571,234.324384 C62.6165714,234.324384 63,233.94067 63,233.467242 C63,232.993813 62.6165714,232.610099 62.1428571,232.610099 Z M47.5714286,235.181527 C46.6262857,235.181527 45.8571429,234.41267 45.8571429,233.467242 C45.8571429,232.521813 46.6262857,231.752956 47.5714286,231.752956 C48.5165714,231.752956 49.2857143,232.521813 49.2857143,233.467242 C49.2857143,234.41267 48.5165714,235.181527 47.5714286,235.181527 Z M62.1428571,224.03867 L57.7354286,224.03867 C57.3522857,222.564099 56.0217143,221.467242 54.4285714,221.467242 C52.8354286,221.467242 51.5051429,222.564099 51.1217143,224.03867 L39.8571429,224.03867 C39.3834286,224.03867 39,224.422384 39,224.895813 C39,225.369242 39.3834286,225.752956 39.8571429,225.752956 L51.1217143,225.752956 C51.5048571,227.227527 52.8354286,228.324384 54.4285714,228.324384 C56.0217143,228.324384 57.352,227.227527 57.7354286,225.752956 L62.1428571,225.752956 C62.6165714,225.752956 63,225.369242 63,224.895813 C63,224.422384 62.6165714,224.03867 62.1428571,224.03867 Z M54.4285714,226.610099 C53.4834286,226.610099 52.7142857,225.841242 52.7142857,224.895813 C52.7142857,223.950384 53.4834286,223.181527 54.4285714,223.181527 C55.3737143,223.181527 56.1428571,223.950384 56.1428571,224.895813 C56.1428571,225.841242 55.3737143,226.610099 54.4285714,226.610099 Z M39.8571429,217.181527 L44.2645714,217.181527 C44.6477143,218.656099 45.9782857,219.752956 47.5714286,219.752956 C49.1645714,219.752956 50.4948571,218.656099 50.8782857,217.181527 L62.1428571,217.181527 C62.6165714,217.181527 63,216.797813 63,216.324384 C63,215.850956 62.6165714,215.467242 62.1428571,215.467242 L50.8782857,215.467242 C50.4948571,213.99267 49.1645714,212.895813 47.5714286,212.895813 C45.9782857,212.895813 44.648,213.99267 44.2645714,215.467242 L39.8571429,215.467242 C39.3834286,215.467242 39,215.850956 39,216.324384 C39,216.797813 39.3834286,217.181527 39.8571429,217.181527 Z M47.5714286,214.610099 C48.5165714,214.610099 49.2857143,215.378956 49.2857143,216.324384 C49.2857143,217.269813 48.5165714,218.03867 47.5714286,218.03867 C46.6262857,218.03867 45.8571429,217.269813 45.8571429,216.324384 C45.8571429,215.378956 46.6262857,214.610099 47.5714286,214.610099 Z" id="[icon]-environment"></path>
            </g>
        </g>
    </g>
</svg>