<?xml version="1.0" encoding="UTF-8"?>
<svg width="24px" height="24px" viewBox="0 0 24 24" version="1.1" xmlns="http://www.w3.org/2000/svg" xmlns:xlink="http://www.w3.org/1999/xlink">
    <!-- Generator: Sketch 51.3 (57544) - http://www.bohemiancoding.com/sketch -->
    <title>[icon] release</title>
    <desc>Created with Sketch.</desc>
    <defs></defs>
    <g id="Page-1" stroke="none" stroke-width="1" fill="none" fill-rule="evenodd">
        <g id="APP-overview" transform="translate(-55.000000, -244.000000)" fill="#3C2EBF" fill-rule="nonzero">
            <g id="[sidebar]-menu" transform="translate(15.000000, 159.000000)">
                <path d="M55.0823994,93.3034326 L51.7623591,94.8970628 L43.1183683,90.7369624 L46.4681686,89.0938022 L55.0823994,93.3034326 Z M51.5166291,86.687892 L60.1889399,90.9210424 L57.1217096,92.2565525 C57.0635396,92.1979625 48.4806588,88.1043721 48.4806588,88.1043721 L51.5166291,86.687892 Z M61.43352,92.7385326 L61.43352,102.433454 L52.7089792,106.537784 L52.7089792,96.842863 L55.9508095,95.2390028 L55.9508095,97.7674931 C55.9508095,99.1380732 58.1082297,98.4527831 58.1082297,97.082263 L58.1082297,94.2952327 L61.43352,92.7385326 Z M41.9936382,92.5777026 L50.634449,96.842863 L50.634449,106.469264 L41.9936382,102.204103 L41.9936382,92.5777026 Z M40.003468,91.3566724 L40.003468,103.001144 C40.003468,103.246934 40.370218,103.811534 40.601098,103.921154 L51.017309,108.866564 C51.3632391,109.005884 51.9348891,109.059494 52.4089492,108.912134 L62.7423602,103.989674 C62.9732402,103.880054 63.3121202,103.513514 63.3399902,103.069664 L63.3399902,91.4587325 C63.3040202,90.8722324 63.0523502,90.3582423 62.5460102,90.0800823 L52.1786992,85.0564618 C52.0279791,84.9834718 51.3613491,84.9804418 51.2099091,85.0520818 L40.8959381,89.8974423 C40.207228,90.2441223 39.967528,90.9521524 40.003468,91.3566724 Z" id="[icon]-release"></path>
            </g>
        </g>
    </g>
</svg>