<?xml version="1.0" encoding="UTF-8"?>
<svg width="26px" height="25px" viewBox="0 0 26 25" version="1.1" xmlns="http://www.w3.org/2000/svg" xmlns:xlink="http://www.w3.org/1999/xlink">
    <!-- Generator: Sketch 51.3 (57544) - http://www.bohemiancoding.com/sketch -->
    <title>[icon] app</title>
    <desc>Created with Sketch.</desc>
    <defs></defs>
    <g id="Page-1" stroke="none" stroke-width="1" fill="none" fill-rule="evenodd">
        <g id="APP-overview" transform="translate(-52.000000, -180.000000)" fill="#000000" fill-rule="nonzero">
            <g id="[sidebar]-menu" transform="translate(15.000000, 159.000000)">
                <path d="M62.0005549,25.0560189 L56.3679245,21.2269401 C56.0072142,20.9772175 55.563263,20.9772175 55.2025527,21.2269401 L49.9861265,24.6675616 L44.936182,21.2269401 C44.5754717,20.9772175 44.1315205,20.9772175 43.7708102,21.2269401 L37.9716981,25.0560189 C37.6664817,25.2502475 37.5,25.5832109 37.5,25.9161743 L37.5,31.6320455 C37.5,31.9650089 37.6664817,32.2979723 37.9716981,32.4922009 L43.2436182,36.0438102 L43.2436182,41.1492486 C43.2436182,41.482212 43.4100999,41.8151754 43.7153163,42.009404 L49.3479467,45.8384828 C49.5144284,45.9494706 49.736404,46.0049645 49.9306326,46.0049645 C50.1248613,46.0049645 50.3190899,45.9494706 50.5133185,45.8384828 L56.3124306,42.009404 C56.6176471,41.8151754 56.7841287,41.482212 56.7841287,41.1492486 L56.7841287,35.9605694 L62.0283019,32.5199478 C62.3335183,32.3257192 62.5,31.9927558 62.5,31.6597925 L62.5,25.9161743 C62.4722531,25.5832109 62.3057714,25.2502475 62.0005549,25.0560189 Z M55.7852386,23.363455 L59.5588235,25.9161743 L55.6465039,28.4966404 L51.872919,25.9439212 L55.7852386,23.363455 Z M49.9028857,38.0138435 L46.1293008,35.4611243 L50.0138735,32.9084051 L53.7874584,35.4611243 L49.9028857,38.0138435 Z M54.6753607,33.491091 L51.0405105,31.0216127 L51.0405105,27.8862075 L54.6753607,30.3556859 L54.6753607,33.491091 Z M48.9594895,31.0771065 L45.3246393,33.4633441 L45.3246393,30.2446981 L48.9594895,27.8584606 L48.9594895,31.0771065 Z M44.3257492,23.363455 L48.0993341,25.9161743 L44.1870144,28.4966404 L40.4134295,25.9439212 L44.3257492,23.363455 Z M39.5810211,27.8862075 L43.2158713,30.3556859 L43.2158713,33.5465849 L39.5810211,31.0771065 L39.5810211,27.8862075 Z M45.2968923,37.4034107 L48.9317425,39.872889 L48.9317425,43.091535 L45.2968923,40.6220566 L45.2968923,37.4034107 Z M51.0405105,43.0082941 L51.0405105,39.7619012 L54.6753607,37.3756637 L54.6753607,40.6220566 L51.0405105,43.0082941 Z M56.7563818,33.4633441 L56.7563818,30.2446981 L60.391232,27.8584606 L60.391232,31.1048535 L56.7563818,33.4633441 Z" id="[icon]-app"></path>
            </g>
        </g>
    </g>
</svg>